# xmcd CD database file
#
# Track frame offsets:
#	150
#	21927
#	35595
#	54956
#	77691
#	100206
#	117782
#	133950
#	145063
#	153747
#	169335
#	180458
#	191242
#	205654
#	217212
#
# Disc length: 3052 seconds
#
# Revision: 0
# Processed by: cddbd v1.5.1PL2 Copyright (c) Steve Scherf et al.
# Submitted via: CDex 1.40Release
#
DISCID=db0bea0f
DTITLE=B.B. King - The Legendary BB King - Disc 1
DYEAR=1900
DGENRE=Blues
TTITLE0=The Thrill is Gone (Live)
TTITLE1=3 O'Clock Blues
TTITLE2=Sweet Sixteen (Live)
TTITLE3=Everyday I Have the Blues
TTITLE4=You've Done Lost Your Good Thing Now
TTITLE5=That Evil Child
TTITLE6=It's My Own Fault
TTITLE7=Catfish Blues
TTITLE8=A New Way of Driving
TTITLE9=Walkin' and Cryin'
TTITLE10=B.B. Blues
TTITLE11=Fine Lookin' Woman
TTITLE12=She Don't Move Me No More
TTITLE13=She's A Mean Woman
TTITLE14=Shake It Up and Go
EXTD=ID3G: 0
EXTT0=
EXTT1=
EXTT2=
EXTT3=
EXTT4=
EXTT5=
EXTT6=
EXTT7=
EXTT8=
EXTT9=
EXTT10=
EXTT11=
EXTT12=
EXTT13=
EXTT14=
PLAYORDER=
